<svg version="1.1" xmlns="http://www.w3.org/2000/svg" xmlns:xlink="http://www.w3.org/1999/xlink" width="15" height="25" viewBox="0 0 15 25"><path id="Ruler" d="M14.634,25.000 C12.360,25.000 10.086,25.000 7.813,25.000 C7.578,24.866 7.501,24.663 7.501,24.395 C7.505,16.467 7.506,8.539 7.501,0.611 C7.501,0.319 7.576,0.104 7.865,-0.000 C10.139,-0.000 12.412,-0.000 14.685,-0.000 C14.934,0.139 14.999,0.357 14.999,0.631 C14.995,8.559 14.995,16.488 14.999,24.416 C14.999,24.705 14.904,24.898 14.634,25.000 zM14.152,0.848 C12.205,0.848 10.277,0.848 8.350,0.848 C8.350,1.686 8.350,2.505 8.350,3.335 C9.020,3.335 9.670,3.332 10.320,3.336 C10.621,3.338 10.824,3.512 10.820,3.750 C10.814,3.991 10.615,4.161 10.316,4.163 C9.822,4.167 9.327,4.163 8.833,4.163 C8.671,4.163 8.510,4.163 8.350,4.163 C8.350,5.297 8.350,6.394 8.350,7.502 C9.019,7.502 9.669,7.499 10.318,7.503 C10.619,7.505 10.824,7.678 10.820,7.915 C10.815,8.157 10.616,8.326 10.318,8.330 C10.058,8.335 9.798,8.330 9.537,8.329 C9.142,8.329 8.746,8.329 8.349,8.329 C8.349,9.463 8.349,10.559 8.349,11.670 C8.471,11.670 8.574,11.670 8.678,11.670 C9.241,11.670 9.805,11.665 10.369,11.672 C10.617,11.675 10.807,11.847 10.821,12.054 C10.836,12.273 10.652,12.466 10.398,12.494 C10.329,12.502 10.259,12.496 10.189,12.496 C9.583,12.496 8.977,12.496 8.349,12.496 C8.349,13.628 8.349,14.725 8.349,15.836 C9.025,15.836 9.683,15.833 10.341,15.837 C10.621,15.839 10.821,16.018 10.820,16.245 C10.818,16.477 10.626,16.653 10.347,16.663 C10.139,16.670 9.931,16.663 9.723,16.663 C9.266,16.663 8.810,16.663 8.348,16.663 C8.348,17.794 8.348,18.890 8.348,20.004 C8.460,20.004 8.554,20.004 8.648,20.004 C9.212,20.003 9.776,19.999 10.340,20.004 C10.620,20.006 10.821,20.184 10.820,20.411 C10.820,20.643 10.627,20.816 10.349,20.831 C10.271,20.835 10.193,20.830 10.115,20.830 C9.528,20.830 8.941,20.830 8.347,20.830 C8.347,21.959 8.347,23.056 8.347,24.153 C10.294,24.153 12.223,24.153 14.152,24.153 C14.152,16.373 14.152,8.611 14.152,0.848 zM3.430,24.955 C3.380,24.962 3.333,24.985 3.284,25.000 C3.110,25.000 2.937,25.000 2.763,25.000 C2.193,24.885 1.641,24.723 1.157,24.380 C0.428,23.863 -0.002,23.209 0.001,22.269 C0.016,17.836 0.006,13.402 0.014,8.969 C0.014,8.770 0.067,8.555 0.154,8.377 C0.911,6.837 1.681,5.304 2.449,3.770 C2.499,3.670 2.553,3.566 2.627,3.484 C2.834,3.256 3.139,3.310 3.308,3.615 C3.484,3.933 3.638,4.263 3.801,4.589 C4.440,5.868 5.082,7.145 5.714,8.428 C5.783,8.569 5.826,8.739 5.826,8.896 C5.833,13.330 5.805,17.764 5.848,22.197 C5.863,23.755 4.670,24.775 3.430,24.955 zM0.843,20.015 C0.843,20.291 0.843,20.547 0.843,20.821 C2.243,20.821 3.614,20.821 4.986,20.821 C4.986,20.541 4.986,20.278 4.986,20.015 C3.595,20.015 2.224,20.015 0.843,20.015 zM0.850,19.161 C1.403,19.161 1.937,19.161 2.490,19.161 C2.490,15.816 2.490,12.499 2.490,9.181 C1.931,9.181 1.390,9.181 0.850,9.181 C0.850,12.517 0.850,15.835 0.850,19.161 zM2.919,4.672 C2.296,5.920 1.701,7.111 1.099,8.317 C2.335,8.317 3.524,8.317 4.742,8.317 C4.134,7.102 3.541,5.915 2.919,4.672 zM4.988,9.174 C4.436,9.174 3.902,9.174 3.350,9.174 C3.350,12.520 3.350,15.837 3.350,19.151 C3.909,19.151 4.449,19.151 4.988,19.151 C4.988,15.814 4.988,12.498 4.988,9.174 zM5.004,21.681 C3.597,21.681 2.224,21.681 0.833,21.681 C0.833,21.905 0.844,22.113 0.831,22.319 C0.805,22.716 0.933,23.060 1.208,23.335 C1.389,23.516 1.596,23.683 1.816,23.815 C2.855,24.442 4.126,24.180 4.768,23.235 C5.096,22.753 4.983,22.221 5.004,21.681 z" fill="#757575" /></svg>